<svg width="48" height="48" viewBox="0 0 48 48" fill="none" xmlns="http://www.w3.org/2000/svg">
<path d="M17 23.5V19.5L18 18.5H30L31 19.5V23.5H17Z" fill="#FFF1F5"/>
<path d="M18.1818 32.6364H29.8182C31.0234 32.6364 32 31.6598 32 30.4545V19.9091C32 18.7038 31.0234 17.7273 29.8182 17.7273H28.3636V16.7273C28.3636 16.3253 28.0383 16 27.6364 16C27.2344 16 26.9091 16.3253 26.9091 16.7273V17.7273H21.0909V16.7273C21.0909 16.3253 20.7656 16 20.3636 16C19.9617 16 19.6364 16.3253 19.6364 16.7273V17.7273H18.1818C16.9766 17.7273 16 18.7038 16 19.9091V30.4545C16 31.6598 16.9766 32.6364 18.1818 32.6364ZM29.8182 31.1818H18.1818C17.7798 31.1818 17.4545 30.8565 17.4545 30.4545V24.4545H30.5455V30.4545C30.5455 30.6477 30.4687 30.8324 30.3324 30.9687C30.196 31.1051 30.0114 31.1818 29.8182 31.1818ZM18.1818 19.1818H19.6364V20C19.6364 20.402 19.9617 20.7273 20.3636 20.7273C20.7656 20.7273 21.0909 20.402 21.0909 20V19.1818H26.9091V20C26.9091 20.402 27.2344 20.7273 27.6364 20.7273C28.0383 20.7273 28.3636 20.402 28.3636 20V19.1818H29.8182C30.0114 19.1818 30.196 19.2585 30.3324 19.3949C30.4687 19.5313 30.5455 19.7159 30.5455 19.9091V23H17.4545V19.9091C17.4545 19.5071 17.7798 19.1818 18.1818 19.1818Z" fill="#D93562"/>
</svg>
