<svg width="48" height="48" viewBox="0 0 48 48" fill="none" xmlns="http://www.w3.org/2000/svg">
<path d="M24 15C19.0375 15 15 19.0375 15 24C15 28.9625 19.0375 33 24 33C28.9625 33 33 28.9625 33 24C33 19.0375 28.9625 15 24 15ZM24 16.3846C28.2148 16.3846 31.6154 19.7853 31.6154 24C31.6154 28.2134 28.2147 31.6154 24 31.6154C19.7853 31.6154 16.3846 28.2133 16.3846 24C16.3846 19.7852 19.7853 16.3846 24 16.3846ZM24 18.8077C23.6173 18.8077 23.3077 19.1173 23.3077 19.5V24C23.3077 24.1907 23.3875 24.361 23.5132 24.4868C24.4111 25.3629 25.3129 26.2824 26.2067 27.1803C26.4771 27.4507 26.9098 27.4507 27.1803 27.1803C27.4507 26.9098 27.4507 26.4771 27.1803 26.2067L24.6923 23.7187V19.4998C24.6923 19.1171 24.3827 18.8077 24 18.8077Z" fill="#D93562"/>
</svg>
