<svg width="48" height="48" viewBox="0 0 48 48" fill="none" xmlns="http://www.w3.org/2000/svg">
<path d="M28.7678 27C27.6838 29.0799 25.5077 30.5 23 30.5C19.4101 30.5 16.5 27.5899 16.5 24C16.5 20.4101 19.4101 17.5 23 17.5C25.5077 17.5 27.6838 18.9201 28.7678 21H30.4185C29.2317 18.0682 26.3574 16 23 16C18.5817 16 15 19.5817 15 24C15 28.4183 18.5817 32 23 32C26.3574 32 29.2317 29.9318 30.4185 27H28.7678Z" fill="#D93562"/>
<path d="M23.75 24.7497C23.3358 24.7497 23 24.4139 23 23.9997C23 23.5855 23.3358 23.2497 23.75 23.2497H34.0176L32.4695 21.7016C32.1766 21.4087 32.1766 20.9338 32.4695 20.6409C32.7624 20.348 33.2373 20.348 33.5301 20.6409L36.8889 23.9997L33.5301 27.3585C33.2373 27.6514 32.7624 27.6514 32.4695 27.3585C32.1766 27.0656 32.1766 26.5907 32.4695 26.2978L34.0176 24.7497H23.75Z" fill="#D93562"/>
</svg>
