<svg width="48" height="48" viewBox="0 0 48 48" fill="none" xmlns="http://www.w3.org/2000/svg">
<path d="M24 15C19.0375 15 15 19.0375 15 24C15 28.9625 19.0375 33 24 33C28.9625 33 33 28.9625 33 24C33 19.0375 28.9625 15 24 15ZM24 16.3846C28.2148 16.3846 31.6154 19.7853 31.6154 24C31.6154 28.2134 28.2147 31.6154 24 31.6154C19.7853 31.6154 16.3846 28.2133 16.3846 24C16.3846 19.7852 19.7853 16.3846 24 16.3846Z" fill="#D93562"/>
<path fill-rule="evenodd" clip-rule="evenodd" d="M23.2289 20.1505C23.2289 19.8839 23.4581 19.6874 23.7159 19.6874H24.3899C24.6478 19.6874 24.8769 19.8839 24.8769 20.1505L24.877 25.0389C24.877 25.1654 24.8231 25.2844 24.7305 25.3704C24.6383 25.456 24.5156 25.502 24.3899 25.502H23.7159C23.4581 25.502 23.2289 25.3055 23.2289 25.0389V20.1505ZM23.2289 27.3088C23.2289 27.018 23.4789 26.8011 23.7641 26.8011H24.3418C24.4805 26.8011 24.6152 26.8522 24.7162 26.946C24.8176 27.0401 24.877 27.1702 24.877 27.3089V27.8455C24.877 27.9842 24.8176 28.1142 24.7162 28.2084C24.6152 28.3022 24.4805 28.3533 24.3418 28.3533H23.7641C23.4789 28.3533 23.2289 28.1364 23.2289 27.8455V27.3088Z" fill="#D93562"/>
</svg>
