<svg width="48" height="48" viewBox="0 0 48 48" fill="none" xmlns="http://www.w3.org/2000/svg">
<path d="M16.4641 20L19.9282 23.75H13L16.4641 20Z" fill="#D93562"/>
<path d="M31.4641 29L34.9282 25.25H28L31.4641 29Z" fill="#D93562"/>
<path d="M17.4641 17C17.4641 17.5523 17.0164 18 16.4641 18C15.9118 18 15.4641 17.5523 15.4641 17C15.4641 16.4477 15.9118 16 16.4641 16C17.0164 16 17.4641 16.4477 17.4641 17Z" fill="#D93562"/>
<path d="M17.4641 32C17.4641 32.5523 17.0164 33 16.4641 33C15.9118 33 15.4641 32.5523 15.4641 32C15.4641 31.4477 15.9118 31 16.4641 31C17.0164 31 17.4641 31.4477 17.4641 32Z" fill="#D93562"/>
<path d="M17.4641 27C17.4641 27.5523 17.0164 28 16.4641 28C15.9118 28 15.4641 27.5523 15.4641 27C15.4641 26.4477 15.9118 26 16.4641 26C17.0164 26 17.4641 26.4477 17.4641 27Z" fill="#D93562"/>
<path d="M22.4641 17C22.4641 17.5523 22.0164 18 21.4641 18C20.9118 18 20.4641 17.5523 20.4641 17C20.4641 16.4477 20.9118 16 21.4641 16C22.0164 16 22.4641 16.4477 22.4641 17Z" fill="#D93562"/>
<path d="M22.4641 32C22.4641 32.5523 22.0164 33 21.4641 33C20.9118 33 20.4641 32.5523 20.4641 32C20.4641 31.4477 20.9118 31 21.4641 31C22.0164 31 22.4641 31.4477 22.4641 32Z" fill="#D93562"/>
<path d="M27.4641 17C27.4641 17.5523 27.0164 18 26.4641 18C25.9118 18 25.4641 17.5523 25.4641 17C25.4641 16.4477 25.9118 16 26.4641 16C27.0164 16 27.4641 16.4477 27.4641 17Z" fill="#D93562"/>
<path d="M27.4641 32C27.4641 32.5523 27.0164 33 26.4641 33C25.9118 33 25.4641 32.5523 25.4641 32C25.4641 31.4477 25.9118 31 26.4641 31C27.0164 31 27.4641 31.4477 27.4641 32Z" fill="#D93562"/>
<path d="M32.4641 17C32.4641 17.5523 32.0164 18 31.4641 18C30.9118 18 30.4641 17.5523 30.4641 17C30.4641 16.4477 30.9118 16 31.4641 16C32.0164 16 32.4641 16.4477 32.4641 17Z" fill="#D93562"/>
<path d="M32.4641 22C32.4641 22.5523 32.0164 23 31.4641 23C30.9118 23 30.4641 22.5523 30.4641 22C30.4641 21.4477 30.9118 21 31.4641 21C32.0164 21 32.4641 21.4477 32.4641 22Z" fill="#D93562"/>
<path d="M32.4641 32C32.4641 32.5523 32.0164 33 31.4641 33C30.9118 33 30.4641 32.5523 30.4641 32C30.4641 31.4477 30.9118 31 31.4641 31C32.0164 31 32.4641 31.4477 32.4641 32Z" fill="#D93562"/>
</svg>
