<svg width="48" height="48" viewBox="0 0 48 48" fill="none" xmlns="http://www.w3.org/2000/svg">
<path d="M23.7692 14C23.344 14 23 14.3441 23 14.7692V23.7692C23 23.9811 23.0886 24.1704 23.2284 24.3101C24.226 25.2836 27.1944 27.8532 28.1875 28.8508C28.488 29.1513 28.9687 29.1513 29.2692 28.8508C29.5697 28.5503 29.5697 28.0695 29.2692 27.769L24.5384 23.4567V14.769C24.5384 14.3438 24.1944 14 23.7692 14Z" fill="#D93562"/>
<path d="M23.7692 14C23.344 14 23 14.3441 23 14.7692V23.7692C23 23.9811 23.0886 24.1704 23.2284 24.3101C24.226 25.2836 27.1944 27.8532 28.1875 28.8508C28.488 29.1513 28.9687 29.1513 29.2692 28.8508C29.5697 28.5503 29.5697 28.0695 29.2692 27.769L24.5384 23.4567V14.769C24.5384 14.3438 24.1944 14 23.7692 14Z" fill="#D93562"/>
</svg>
