<svg width="48" height="48" viewBox="0 0 48 48" fill="none" xmlns="http://www.w3.org/2000/svg">
<path d="M17 22.5V18.5L18 17.5H30L31 18.5V22.5H17Z" fill="#FFF1F5"/>
<path d="M18.1818 31.6364H29.8182C31.0234 31.6364 32 30.6598 32 29.4545V18.9091C32 17.7038 31.0234 16.7273 29.8182 16.7273H28.3636V15.7273C28.3636 15.3253 28.0383 15 27.6364 15C27.2344 15 26.9091 15.3253 26.9091 15.7273V16.7273H21.0909V15.7273C21.0909 15.3253 20.7656 15 20.3636 15C19.9617 15 19.6364 15.3253 19.6364 15.7273V16.7273H18.1818C16.9766 16.7273 16 17.7038 16 18.9091V29.4545C16 30.6598 16.9766 31.6364 18.1818 31.6364ZM29.8182 30.1818H18.1818C17.7798 30.1818 17.4545 29.8565 17.4545 29.4545V23.4545H30.5455V29.4545C30.5455 29.6477 30.4687 29.8324 30.3324 29.9687C30.196 30.1051 30.0114 30.1818 29.8182 30.1818ZM18.1818 18.1818H19.6364V19C19.6364 19.402 19.9617 19.7273 20.3636 19.7273C20.7656 19.7273 21.0909 19.402 21.0909 19V18.1818H26.9091V19C26.9091 19.402 27.2344 19.7273 27.6364 19.7273C28.0383 19.7273 28.3636 19.402 28.3636 19V18.1818H29.8182C30.0114 18.1818 30.196 18.2585 30.3324 18.3949C30.4687 18.5313 30.5455 18.7159 30.5455 18.9091V22H17.4545V18.9091C17.4545 18.5071 17.7798 18.1818 18.1818 18.1818Z" fill="#D93562"/>
</svg>
