<svg width="48" height="48" viewBox="0 0 48 48" fill="none" xmlns="http://www.w3.org/2000/svg">
<path d="M22.4156 21.1705C22.5286 21.0494 22.5221 20.8595 22.401 20.7465L21.6813 20.0748C21.5602 19.9618 21.3704 19.9683 21.2573 20.0894L16.5 25.1866L14.2452 22.7357C14.133 22.6138 13.9433 22.6059 13.8213 22.718L13.0969 23.3845C12.975 23.4967 12.967 23.6865 13.0792 23.8084L16.4916 27.5176L22.4156 21.1705Z" fill="#1679F9"/>
<path d="M34.33 27.1974C34.177 27.3504 33.9295 27.3523 33.7742 27.2016L31.3185 24.8204L29.0534 27.1816C28.8997 27.3418 28.6444 27.3444 28.4875 27.1875L27.9274 26.6274C27.775 26.475 27.7725 26.2287 27.9217 26.0731L30.1813 23.7177L27.7412 21.3516C27.5825 21.1976 27.5805 20.9435 27.7369 20.7871L28.297 20.227C28.45 20.074 28.6975 20.0721 28.8528 20.2227L31.2781 22.5745L33.5146 20.2431C33.6682 20.083 33.9235 20.0803 34.0805 20.2373L34.6405 20.7973C34.7929 20.9497 34.7955 21.196 34.6463 21.3516L32.4153 23.6772L34.8857 26.0728C35.0445 26.2268 35.0465 26.4809 34.8901 26.6373L34.33 27.1974Z" fill="#1679F9"/>
</svg>
