<svg width="48" height="48" viewBox="0 0 48 48" fill="none" xmlns="http://www.w3.org/2000/svg">
<path fill-rule="evenodd" clip-rule="evenodd" d="M31.3836 25.174L29.0121 22.5852C28.7477 22.2966 28.7671 21.8481 29.0555 21.5835C29.1918 21.4584 29.3637 21.3968 29.535 21.3971C29.7262 21.3974 29.9167 21.4747 30.0561 21.6269L30.6882 22.3168V20.5277C30.6882 18.7428 29.2426 17.2958 27.4594 17.2958H26.9981C26.7738 17.2958 26.5744 17.189 26.448 17.0233C26.3591 16.9068 26.3063 16.7612 26.3063 16.6033C26.3063 16.4564 26.352 16.3201 26.43 16.208C26.555 16.0283 26.7628 15.9108 26.9981 15.9108H27.4594C30.0068 15.9108 32.0719 17.9778 32.0719 20.5277V22.3227L32.1151 22.3226L32.7753 21.6187C32.8982 21.4876 33.0592 21.4137 33.2251 21.3981C33.4203 21.3797 33.6222 21.4421 33.7765 21.587C34.0617 21.855 34.0758 22.3037 33.8081 22.5892L31.3836 25.174ZM22.6001 14.1921C22.3149 13.9241 21.8667 13.9382 21.5989 14.2237C21.4541 14.3781 21.3918 14.5802 21.4101 14.7757C21.4257 14.9417 21.4995 15.1028 21.6305 15.2259L22.3338 15.8867L22.3339 15.9299H20.5406C17.9932 15.9299 15.9281 17.997 15.9281 20.5469V20.999C15.9281 21.2271 16.0382 21.4294 16.2082 21.5556C16.3233 21.641 16.4657 21.6915 16.6199 21.6915C16.775 21.6915 16.9181 21.6405 17.0335 21.5543C17.2024 21.428 17.3118 21.2263 17.3118 20.999V20.5469C17.3118 18.762 18.7574 17.315 20.5406 17.315H22.328L21.6387 17.9476C21.4867 18.0872 21.4095 18.2779 21.4092 18.4692C21.4089 18.6408 21.4704 18.8128 21.5954 18.9492C21.8597 19.2379 22.3078 19.2573 22.5961 18.9927L25.1824 16.6189L22.6001 14.1921ZM31.7864 26.4309C31.6723 26.3479 31.5319 26.2989 31.3801 26.2989C31.2274 26.2989 31.0862 26.3484 30.9718 26.4323C30.7998 26.5583 30.6882 26.7618 30.6882 26.9914V27.4531C30.6882 29.238 29.2426 30.685 27.4594 30.685H25.6529L26.3421 30.0524C26.4941 29.9128 26.5714 29.7221 26.5717 29.5308C26.572 29.3592 26.5104 29.1872 26.3855 29.0508C26.1211 28.7621 25.6731 28.7427 25.3848 29.0073L22.7984 31.3811L25.3807 33.8079C25.6659 34.0759 26.1142 34.0618 26.382 33.7763C26.5267 33.6219 26.5891 33.4198 26.5707 33.2243C26.5551 33.0583 26.4813 32.8972 26.3503 32.7741L25.6471 32.1133L25.647 32.0701H27.4594C30.0068 32.0701 32.0719 30.003 32.0719 27.4531V26.9914C32.0719 26.761 31.9594 26.5568 31.7864 26.4309ZM21.5329 30.9767C21.4064 30.811 21.207 30.7042 20.9827 30.7042H20.5406C18.7574 30.7042 17.3118 29.2572 17.3118 27.4723V25.6641L17.9439 26.3539C18.0833 26.5061 18.2738 26.5834 18.465 26.5837C18.6363 26.584 18.8082 26.5224 18.9445 26.3974C19.2329 26.1328 19.2523 25.6843 18.9879 25.3957L16.6164 22.8068L14.1919 25.3916C13.9242 25.6771 13.9383 26.1258 14.2235 26.3938C14.3778 26.5387 14.5797 26.6012 14.7749 26.5828C14.9408 26.5672 15.1018 26.4933 15.2247 26.3622L15.8849 25.6583L15.9281 25.6581V27.4723C15.9281 30.0222 17.9932 32.0892 20.5406 32.0892H20.9827C21.218 32.0892 21.4259 31.9717 21.5509 31.792C21.6289 31.6799 21.6746 31.5436 21.6746 31.3967C21.6746 31.2388 21.6218 31.0932 21.5329 30.9767Z" fill="#D93562"/>
</svg>
